<?xml version="1.0" encoding="UTF-8" standalone="no"?>
<!-- Created with Inkscape (http://www.inkscape.org/) -->

<svg
   width="149.50674mm"
   height="149.41104mm"
   viewBox="0 0 149.50674 149.41104"
   version="1.1"
   id="svg1"
   inkscape:version="1.4.2 (f4327f4, 2025-05-13)"
   sodipodi:docname="favicon.svg"
   xmlns:inkscape="http://www.inkscape.org/namespaces/inkscape"
   xmlns:sodipodi="http://sodipodi.sourceforge.net/DTD/sodipodi-0.dtd"
   xmlns="http://www.w3.org/2000/svg"
   xmlns:svg="http://www.w3.org/2000/svg">
  <sodipodi:namedview
     id="namedview1"
     pagecolor="#505050"
     bordercolor="#eeeeee"
     borderopacity="1"
     inkscape:showpageshadow="0"
     inkscape:pageopacity="0"
     inkscape:pagecheckerboard="0"
     inkscape:deskcolor="#505050"
     inkscape:document-units="mm"
     inkscape:zoom="0.72604517"
     inkscape:cx="397.3582"
     inkscape:cy="561.25984"
     inkscape:window-width="1920"
     inkscape:window-height="1017"
     inkscape:window-x="1592"
     inkscape:window-y="-8"
     inkscape:window-maximized="1"
     inkscape:current-layer="layer1">
    <inkscape:page
       x="0"
       y="0"
       width="149.50673"
       height="149.41104"
       id="page2"
       margin="0"
       bleed="0" />
  </sodipodi:namedview>
  <defs
     id="defs1" />
  <g
     inkscape:label="Capa 1"
     inkscape:groupmode="layer"
     id="layer1">
    <g
       id="g28"
       transform="matrix(0.26458333,0,0,0.26458333,-143.23572,-34.584766)">
      <path
         fill="#8eb936"
         stroke="#8eb936"
         stroke-width="0.0938"
         d="m 977.9,160.9 c 12.37,-4.04 23.72,-10.55 34.93,-17.06 -3.71,12.33 -8.21,24.44 -11.02,37.03 -8.45,33.51 -7.64,68.44 -14.89,102.17 -2.99,10.9 -1.43,22.29 -0.59,33.38 0.25,6.88 2.45,14 -0.24,20.69 -4.98,13.31 -18.25,21.11 -24.14,33.88 -3.28,6.45 -2.9,13.97 -1.43,20.85 -7.88,2.7 -13.38,9.11 -19.39,14.51 10.19,-2.3 20.91,-4.03 31.26,-1.76 5.75,1.21 10.99,5.14 13.1,10.72 1.28,3.36 1.11,7.04 1.78,10.54 12.85,-3.87 26.68,-4.28 39.66,-0.75 11.23,2.99 21.73,8.04 32.38,12.61 12.11,5.42 24.7999,9.59 37.85,12.09 -16.5701,14.9 -33.03,29.91 -49.5901,44.83 2.15,0.02 4.3101,0.05 6.4801,0.08 -3.4601,12.48 -12.5801,23.6 -24.64,28.61 -8.58,3.79 -18.3101,3.77 -27.41,2.24 2.08,1.72 4.16,3.47 6.24,5.2 -13.51,-1.04 -27.21,-0.58 -40.34,2.98 -15.04,3.49 -28.8,11.02 -43.87,14.3 -19.67,2.1 -39.92,0.27 -59.15,5.77 -6.78,1.86 -13.84,5.74 -16.34,12.74 -2.33,7.11 -0.06,14.66 2.6,21.34 3.1,7.67 7.36,14.81 11.93,21.69 -9.84,0.48 -19.69,0.85 -29.49,1.78 -20.85,0.83 -42.5,2.72 -62.56,-4.33 -10.78,-3.54 -17.82,-12.9 -25,-21.09 -16.34,-18.86 -29.94,-40.7 -50.62,-55.3 -5.57,-3.99 -12.07,-6.39 -18.58,-8.35 -20.14,-5.9 -41.58,-3.92 -61.82,-9.28 -13.45,-3.38 -26.06,-10.65 -35.1,-21.25 4.93,-0.47 9.95,0.05 14.81,-1.13 -8.31,-27.13 -23.87,-51.14 -37.7,-75.66 -1.73,-3.25 -3.88,-6.33 -4.9,-9.91 2.25,0.29 3.82,1.95 5.53,3.26 11.85,8.86 25.93,14.08 37.98,22.63 1.11,-5.83 0.63,-11.78 1.01,-17.66 0.41,0.07 1.22,0.22 1.63,0.29 5.41,4.25 12,6.6 18.47,8.71 4.08,1.23 8.01,3 12.22,3.8 -10.3,-23.13 -27.82,-43.03 -33.41,-68.22 2.92,1.24 5.69,2.81 8.38,4.51 -4.14,-16.48 -9.59,-32.66 -12.63,-49.42 -3.2599,-16.07 -4.24,-32.59 -2.63,-48.92 7.4,2.92 14.32,6.93 21.6801,9.94 1.94,-31.44 6.14,-62.77 12.21,-93.68 7.56,2.77 16.13,1.41 22.91,-2.78 5.65,-2.88 10.87,-7.9 17.66,-7.31 5.72,-0.1 9.83,4.54 12.61,9 11.93,18.8 18.79,40.21 29.01,59.89 3.39,-3.14 7.06,-5.96 10.5,-9.06 4.14,20.7 8.13,41.43 12.78,62.02 14.46,-13.62 23.9,-31.46 33.21,-48.76 5.22,-10.18 10.48,-20.35 15.86,-30.45 1.5099,4 2.98,8.03 4.09,12.17 1.12,-0.44 2.27,-0.87 3.32,-1.5 26.22,-17.43 52.33,-35.02 78.62,-52.33 0.71,5.3 2.23,10.45 2.87,15.76 3.18,-0.84 6.06,-2.47 8.99,-3.93 23.43,-11.18 46.67,-22.76 70.14,-33.84 1.68,5.75 5.38,11.62 11.46,13.36 7.0099,2.22 14.4899,0.4 21.3199,-1.64 m -59.18,80.77 c -22.71,28.03 -45.08,56.34 -67.96,84.22 -1.88,-8.16 -3.77,-16.31 -5.3,-24.54 -3.76,-18.2 -8.94,-36.73 -6.41,-55.47 -0.09,-0.76 -0.27,-2.3 -0.36,-3.06 -1.9,3.03 -1.93,6.72 -2.08,10.19 -0.41,13.85 2.51,27.5 5.39,40.98 2.47,11.09 4.39,22.32 7.45,33.28 -2.69,4.26 -6.09,8 -9.2,11.94 -14.58,18.02 -28.86,36.3 -43.77,54.04 -0.91,-9.78 -0.3,-19.68 -2.11,-29.37 -3.09,-20.71 -9.09,-41.09 -8.66,-62.2 -2,0.43 -1.64,2.75 -1.78,4.3 0.2,19.79 5.87,38.91 8.67,58.38 1.7401,9.78 1.15,19.76 2.03,29.63 0.48,2.07 -1.32,3.49 -2.4,4.98 -14.77,17.87 -28.78,36.36 -43.79,54.02 0,-8.75 -0.32,-17.71 -3.52,-25.96 -5.79,-16.03 -17.82,-28.6 -29.59,-40.47 -7.65,-6.98 -14.45,-14.8 -21.82,-22.05 -5.18,-5.19 -10.37,-10.38 -15.06,-16.01 -5.48,-6.5 -10.82,-13.43 -13.47,-21.62 -0.71,-1.75 -0.93,-3.92 -2.68,-4.98 0.04,2.29 0.33,4.6 1.26,6.72 4.04,10.31 11.27,18.95 18.83,26.88 11.23,11.48 22.11,23.3 33.65,34.47 10.54,10.07 20.29,21.43 26.13,34.93 4.09,9.11 4.56,19.3 4.38,29.13 0.13,2.29 -1.8,3.82 -3.04,5.49 -11.74,14.34 -23.16,28.95 -34.91,43.29 -2.16,-4.96 -3.64,-10.25 -6.65,-14.78 -9.36,-14.45 -25.1,-23.01 -35.16,-36.85 -0.74,-0.98 -1.74,-1.7 -2.72,-2.4 0.31,1.29 0.59,2.66 1.47,3.73 9.25,12.66 23.18,20.88 32.68,33.31 4.32,5.6 6.94,12.25 8.75,19.04 -4.0099,5.1 -8.24,10.02 -12.02,15.29 0.42,0.12 1.26,0.37 1.68,0.5 3.5,-4.15 6.6,-8.63 10.24,-12.65 2.03,-2.34 5.44,-1.74 8.2,-1.77 12.03,0.79 23.93,3.11 35.96,3.94 10.56,0.29 21.09,2.72 31.66,1.23 1.66,-0.4 4.22,-0.6 3.95,-2.89 -7.75,2.46 -15.95,1.39 -23.89,0.83 -6.54,-1 -13.18,-0.93 -19.74,-1.7 -10.95,-1.42 -21.9,-3.05 -32.95,-3.46 12.03,-15.6 24.68,-30.74 36.93,-46.18 7.93,3.35 16.66,2.21 25.02,2.13 30.32,-0.04 60.59,1.88 90.91,1.32 6.76,-0.56 13.46,-1.74 20.07,-3.26 12.17,-2.74 24.56,-4.4 36.94,-5.83 3.3,-0.65 7.66,0.79 10.17,-1.95 -9.7599,-0.7 -19.43,1.38 -29.06,2.63 -15.07,1.82 -29.69,7.28 -45.02,6.69 -18,-0.29 -36.04,0.08 -54.01,-1.04 -8.66,-0.01 -17.31,-0.33 -25.96,-0.45 -9.08,-0.16 -18.41,1.46 -27.24,-1.37 1.39,-3.67 4.35,-6.36 6.7,-9.4 13.19,-16.47 26.41,-32.92 39.65,-49.34 1.14,-1.67 3.11,-2.29 4.94,-2.88 12.4301,-3.89 24.63,-8.83 37.6,-10.66 12.81,-1.64 25.83,-1.67 38.53,-4.19 3.94,-0.5 8.45,-0.97 11.02,-4.44 -14.97,4.55 -30.73,4.96 -46.2,6.37 -8.55,0.95 -16.91,3.07 -25.04,5.79 -5.5,1.71 -10.84,4 -16.54,4.95 8.3101,-11.11 17.3701,-21.64 25.9301,-32.55 8.96,-10.79 17.27,-22.14 26.6,-32.61 2.04,-0.48 4.04,-1.14 5.98,-1.95 7.12,-2.99 14.92,-3.49 22.31,-5.52 12.8,-3.1 25.56,-6.84 37.32,-12.87 6.87,-3.45 13.78,-7.04 21.33,-8.78 1.64,-0.55 3.93,-0.55 4.33,-2.66 -9.94,1.34 -18.95,6.01 -27.8,10.48 -9.3199,4.74 -19.37,7.78 -29.42,10.55 -10.62,3.04 -21.76,4.03 -32.09,8.09 8.05,-10.66 16.77,-20.8 24.98,-31.33 21.45,-26.57 42.8,-53.22 64.24,-79.8 0.98,-1.14 1.68,-2.5 1.26,-4.05 -8.9701,10.19 -17.1001,21.11 -25.7201,31.6 z"
         id="path26" />
      <path
         fill="#188e38"
         stroke="#188e38"
         stroke-width="0.0938"
         d="m 918.72,241.67 c 8.6201,-10.49 16.75,-21.41 25.72,-31.6 0.42,1.55 -0.28,2.91 -1.26,4.05 -21.44,26.58 -42.79,53.23 -64.24,79.8 -8.21,10.53 -16.93,20.67 -24.98,31.33 10.33,-4.06 21.47,-5.05 32.09,-8.09 10.05,-2.77 20.1,-5.81 29.42,-10.55 8.85,-4.47 17.86,-9.14 27.8,-10.48 -0.4,2.11 -2.69,2.11 -4.33,2.66 -7.55,1.74 -14.46,5.33 -21.33,8.78 -11.76,6.03 -24.52,9.77 -37.32,12.87 -7.39,2.03 -15.19,2.53 -22.31,5.52 -1.94,0.81 -3.94,1.47 -5.98,1.95 -9.33,10.47 -17.64,21.82 -26.6,32.61 -8.56,10.91 -17.62,21.44 -25.9301,32.55 5.7,-0.95 11.04,-3.24 16.54,-4.95 8.13,-2.72 16.49,-4.84 25.04,-5.79 15.47,-1.41 31.23,-1.82 46.2,-6.37 -2.57,3.47 -7.08,3.94 -11.02,4.44 -12.7,2.52 -25.72,2.55 -38.53,4.19 -12.97,1.83 -25.17,6.77 -37.6,10.66 -1.83,0.59 -3.8,1.21 -4.94,2.88 -13.24,16.42 -26.46,32.87 -39.65,49.34 -2.35,3.04 -5.31,5.73 -6.7,9.4 8.83,2.83 18.16,1.21 27.24,1.37 8.65,0.12 17.3,0.44 25.96,0.45 17.97,1.12 36.01,0.75 54.01,1.04 15.33,0.59 29.95,-4.87 45.02,-6.69 9.63,-1.25 19.3,-3.33 29.06,-2.63 -2.5099,2.74 -6.87,1.3 -10.17,1.95 -12.38,1.43 -24.77,3.09 -36.94,5.83 -6.61,1.52 -13.31,2.7 -20.07,3.26 -30.32,0.56 -60.59,-1.36 -90.91,-1.32 -8.36,0.08 -17.09,1.22 -25.02,-2.13 -12.25,15.44 -24.9,30.58 -36.93,46.18 11.05,0.41 22,2.04 32.95,3.46 6.56,0.77 13.2,0.7 19.74,1.7 7.94,0.56 16.14,1.63 23.89,-0.83 0.27,2.29 -2.29,2.49 -3.95,2.89 -10.57,1.49 -21.1,-0.94 -31.66,-1.23 -12.03,-0.83 -23.9301,-3.15 -35.96,-3.94 -2.76,0.03 -6.17,-0.57 -8.2,1.77 -3.64,4.02 -6.74,8.5 -10.24,12.65 -0.42,-0.13 -1.26,-0.38 -1.68,-0.5 3.78,-5.27 8.01,-10.19 12.02,-15.29 -1.81,-6.79 -4.43,-13.44 -8.75,-19.04 -9.5,-12.43 -23.43,-20.65 -32.68,-33.31 -0.88,-1.07 -1.16,-2.44 -1.47,-3.73 0.98,0.7 1.98,1.42 2.72,2.4 10.06,13.84 25.8,22.4 35.16,36.85 3.01,4.53 4.49,9.82 6.65,14.78 11.75,-14.34 23.17,-28.95 34.91,-43.29 1.24,-1.67 3.17,-3.2 3.04,-5.49 0.18,-9.83 -0.29,-20.02 -4.38,-29.13 -5.84,-13.5 -15.59,-24.86 -26.13,-34.93 -11.54,-11.17 -22.42,-22.99 -33.65,-34.47 -7.56,-7.93 -14.79,-16.57 -18.83,-26.88 -0.93,-2.12 -1.22,-4.43 -1.26,-6.72 1.75,1.06 1.97,3.23 2.68,4.98 2.65,8.19 7.99,15.12 13.47,21.62 4.69,5.63 9.88,10.82 15.06,16.01 7.37,7.25 14.17,15.07 21.82,22.05 11.77,11.87 23.8,24.44 29.59,40.47 3.2,8.25 3.52,17.21 3.52,25.96 15.01,-17.66 29.02,-36.15 43.79,-54.02 1.08,-1.49 2.88,-2.91 2.4,-4.98 -0.88,-9.87 -0.29,-19.85 -2.03,-29.63 -2.8,-19.47 -8.47,-38.59 -8.67,-58.38 0.14,-1.55 -0.22,-3.87 1.78,-4.3 -0.43,21.11 5.57,41.49 8.66,62.2 1.81,9.69 1.2,19.59 2.11,29.37 14.91,-17.74 29.19,-36.02 43.77,-54.04 3.11,-3.94 6.51,-7.68 9.2,-11.94 -3.06,-10.96 -4.98,-22.19 -7.45,-33.28 -2.88,-13.48 -5.8,-27.13 -5.39,-40.98 0.15,-3.47 0.18,-7.16 2.08,-10.19 0.09,0.76 0.27,2.3 0.36,3.06 -2.53,18.74 2.65,37.27 6.41,55.47 1.53,8.23 3.42,16.38 5.3,24.54 C 873.64,298.01 896.01,269.7 918.72,241.67 Z"
         id="path27" />
      <path
         fill="#8cc63e"
         stroke="#8cc63e"
         stroke-width="0.0938"
         d="m 676.82,522.29 c 6.51,1.96 13.01,4.36 18.58,8.35 -34.66,16.91 -62.15,47.36 -76.66,82.98 -6.79,16.31 -10.86,33.7 -12.28,51.3 -0.31,4.54 0.01,9.11 -0.63,13.64 -5.18,-0.17 -10.37,-0.12 -15.55,-0.06 -0.82,-37.05 10.95,-74.07 31.75,-104.63 14.29,-20.85 33.14,-38.53 54.79,-51.58 z"
         id="path28" />
    </g>
  </g>
</svg>
